<svg xmlns="http://www.w3.org/2000/svg" xmlns:xlink="http://www.w3.org/1999/xlink" width="1366" zoomAndPan="magnify" viewBox="0 0 1024.5 576" height="768" preserveAspectRatio="xMidYMid meet" version="1.0"><defs><clipPath id="81a9ac5219"><path d="M 409 10 L 593 10 L 593 566 L 409 566 Z M 409 10 " clip-rule="nonzero"/></clipPath><clipPath id="d87b808557"><path d="M 194.65625 318.9375 L 516.410156 -2.816406 L 827.5625 308.335938 L 505.808594 630.089844 Z M 194.65625 318.9375 " clip-rule="nonzero"/></clipPath><clipPath id="c9322ef465"><path d="M 194.65625 318.9375 L 516.410156 -2.816406 L 827.5625 308.335938 L 505.808594 630.089844 Z M 194.65625 318.9375 " clip-rule="nonzero"/></clipPath></defs><g clip-path="url(#81a9ac5219)"><g clip-path="url(#d87b808557)"><g clip-path="url(#c9322ef465)"><path fill="#fd8db7" d="M 505.078125 21.292969 L 502.925781 21.292969 C 503.113281 19.3125 502.148438 17.488281 500.472656 16.929688 C 498.453125 16.242188 496.160156 17.65625 495.34375 20.070312 C 494.546875 22.480469 495.523438 24.992188 497.546875 25.65625 C 499.21875 26.214844 501.082031 25.347656 502.136719 23.65625 L 504.339844 23.664062 L 501.042969 34.375 L 498.988281 34.375 C 499.167969 32.382812 498.214844 30.570312 496.527344 30 C 494.515625 29.324219 492.214844 30.730469 491.410156 33.148438 C 490.589844 35.5625 491.578125 38.0625 493.601562 38.75 C 495.273438 39.308594 497.148438 38.429688 498.183594 36.738281 L 500.316406 36.738281 L 497.007812 47.457031 L 495.035156 47.457031 C 495.222656 45.472656 494.269531 43.640625 492.59375 43.082031 C 490.5625 42.40625 488.269531 43.820312 487.464844 46.222656 C 486.65625 48.640625 487.644531 51.140625 489.65625 51.820312 C 491.328125 52.378906 493.191406 51.511719 494.246094 49.816406 L 496.28125 49.816406 L 492.894531 60.777344 L 491.101562 60.777344 C 491.277344 58.804688 490.324219 56.96875 488.648438 56.414062 C 486.617188 55.734375 484.324219 57.148438 483.519531 59.550781 C 482.710938 61.972656 483.699219 64.472656 485.710938 65.148438 C 487.394531 65.71875 489.246094 64.839844 490.300781 63.148438 L 492.15625 63.148438 L 488.738281 74.234375 L 487.144531 74.234375 C 487.332031 72.253906 486.378906 70.421875 484.695312 69.871094 C 482.671875 69.183594 480.378906 70.597656 479.574219 73 C 478.765625 75.421875 479.753906 77.921875 481.765625 78.597656 C 483.449219 79.167969 485.300781 78.289062 486.359375 76.597656 L 488.011719 76.597656 L 484.703125 87.316406 L 483.210938 87.316406 C 483.386719 85.324219 482.433594 83.511719 480.75 82.941406 C 478.734375 82.265625 476.433594 83.671875 475.628906 86.089844 C 474.820312 88.492188 475.796875 91.003906 477.828125 91.679688 C 479.503906 92.238281 481.367188 91.371094 482.414062 89.6875 L 483.976562 89.679688 L 480.808594 99.9375 C 480.25 101.753906 480.847656 103.726562 482.3125 104.929688 L 489.328125 110.628906 L 485.648438 338.84375 C 485.621094 340.863281 484.753906 342.808594 483.199219 344.101562 C 481.945312 345.160156 480.660156 345.945312 479.414062 346.273438 C 472.9375 348.027344 457.992188 346.535156 453.75 336.074219 C 449.515625 325.601562 449.019531 309.660156 449.019531 309.660156 L 448.988281 309.550781 C 447.484375 303.902344 441.085938 301.195312 435.976562 304.011719 L 434.324219 304.929688 C 434.324219 304.929688 423.355469 314.265625 422.984375 332.207031 C 422.605469 350.140625 426.722656 365.472656 431.203125 380.039062 C 435.699219 394.613281 442.042969 411.0625 431.953125 433.488281 C 421.871094 455.902344 398.316406 508.226562 416.261719 533.261719 C 434.191406 558.289062 461.847656 565.761719 496.230469 565.769531 C 530.613281 565.761719 567.972656 568.011719 584.796875 539.988281 C 601.613281 511.953125 586.859375 475.898438 583.492188 467.109375 C 580.125 458.324219 560.699219 426.003906 566.109375 411.429688 C 571.527344 396.863281 580.683594 376.871094 579.566406 365.09375 C 578.441406 353.328125 576.199219 345.667969 570.78125 341.921875 C 570.035156 341.414062 569.277344 340.972656 568.507812 340.605469 C 563.976562 338.382812 558.578125 341.195312 557.710938 346.164062 C 556.582031 352.710938 554.5 361.6875 551.164062 366.019531 C 547.011719 371.429688 532.335938 377.957031 521.457031 371.140625 C 518.667969 369.40625 517.042969 366.289062 517.003906 363 L 513.425781 116.597656 C 513.386719 113.449219 513.664062 110.320312 514.300781 107.230469 C 514.980469 104.023438 515.945312 100.488281 517.28125 98.15625 C 519.640625 94 525.460938 90.792969 527.761719 89.648438 C 528.359375 89.347656 528.71875 88.730469 528.667969 88.0625 C 528.488281 85.535156 527.972656 79.117188 526.996094 74.234375 C 526.039062 69.414062 522.679688 53.402344 521.214844 46.398438 C 520.789062 44.398438 521.625 42.34375 523.320312 41.171875 L 525.460938 39.707031 C 528.441406 37.683594 530.898438 34.984375 532.652344 31.835938 L 532.761719 31.644531 C 536.847656 24.371094 533.621094 15.148438 525.878906 12.007812 L 525.582031 11.890625 C 517.28125 8.511719 507.90625 12.867188 505.078125 21.292969 " fill-opacity="1" fill-rule="nonzero"/></g></g></g></svg>