<svg xmlns="http://www.w3.org/2000/svg" xmlns:xlink="http://www.w3.org/1999/xlink" width="1366" zoomAndPan="magnify" viewBox="0 0 1024.5 576" height="768" preserveAspectRatio="xMidYMid meet" version="1.0"><defs><clipPath id="d52ffdb1a1"><path d="M 742 0.140625 L 934 0.140625 L 934 575.859375 L 742 575.859375 Z M 742 0.140625 " clip-rule="nonzero"/></clipPath><clipPath id="9cd7389a49"><path d="M 822.28125 -16.089844 L 1157.816406 319.445312 L 832.882812 644.378906 L 497.347656 308.84375 Z M 822.28125 -16.089844 " clip-rule="nonzero"/></clipPath><clipPath id="1463deb859"><path d="M 1157.867188 319.496094 L 822.332031 -16.039062 L 497.398438 308.894531 L 832.933594 644.429688 Z M 1157.867188 319.496094 " clip-rule="nonzero"/></clipPath><clipPath id="6439de2b04"><path d="M 0 0.140625 L 827.722656 0.140625 L 827.722656 575.859375 L 0 575.859375 Z M 0 0.140625 " clip-rule="nonzero"/></clipPath></defs><g clip-path="url(#d52ffdb1a1)"><g clip-path="url(#9cd7389a49)"><g clip-path="url(#1463deb859)"><path fill="#fd8db7" d="M 833.953125 8.914062 L 836.199219 8.914062 C 836 6.84375 837.007812 4.941406 838.757812 4.359375 C 840.867188 3.644531 843.257812 5.121094 844.109375 7.636719 C 844.941406 10.152344 843.921875 12.769531 841.8125 13.46875 C 840.066406 14.050781 838.121094 13.144531 837.019531 11.378906 L 834.722656 11.386719 L 838.164062 22.5625 L 840.304688 22.5625 C 840.117188 20.484375 841.117188 18.59375 842.871094 18 C 844.972656 17.292969 847.375 18.757812 848.214844 21.285156 C 849.070312 23.800781 848.039062 26.410156 845.929688 27.125 C 844.183594 27.710938 842.226562 26.792969 841.148438 25.027344 L 838.921875 25.027344 L 842.375 36.210938 L 844.433594 36.210938 C 844.234375 34.144531 845.234375 32.230469 846.980469 31.648438 C 849.101562 30.941406 851.492188 32.417969 852.332031 34.921875 C 853.175781 37.449219 852.144531 40.058594 850.046875 40.765625 C 848.300781 41.347656 846.355469 40.445312 845.253906 38.675781 L 843.132812 38.675781 L 846.667969 50.113281 L 848.539062 50.113281 C 848.351562 48.054688 849.347656 46.140625 851.097656 45.558594 C 853.214844 44.851562 855.609375 46.328125 856.449219 48.832031 C 857.292969 51.359375 856.261719 53.96875 854.164062 54.675781 C 852.40625 55.269531 850.472656 54.351562 849.371094 52.585938 L 847.4375 52.585938 L 851.003906 64.15625 L 852.664062 64.15625 C 852.46875 62.085938 853.464844 60.175781 855.222656 59.601562 C 857.332031 58.886719 859.722656 60.363281 860.566406 62.867188 C 861.410156 65.394531 860.378906 68.003906 858.277344 68.710938 C 856.523438 69.300781 854.589844 68.386719 853.488281 66.621094 L 851.761719 66.621094 L 855.210938 77.804688 L 856.773438 77.804688 C 856.585938 75.726562 857.582031 73.835938 859.339844 73.242188 C 861.441406 72.535156 863.839844 74 864.683594 76.527344 C 865.523438 79.03125 864.507812 81.652344 862.386719 82.359375 C 860.640625 82.941406 858.695312 82.035156 857.605469 80.28125 L 855.972656 80.269531 L 859.277344 90.976562 C 859.859375 92.867188 859.234375 94.925781 857.707031 96.183594 L 850.390625 102.132812 L 854.226562 340.265625 C 854.257812 342.375 855.160156 344.402344 856.78125 345.753906 C 858.09375 346.855469 859.433594 347.675781 860.734375 348.019531 C 867.488281 349.847656 883.082031 348.289062 887.511719 337.375 C 891.929688 326.449219 892.449219 309.816406 892.449219 309.816406 L 892.480469 309.703125 C 894.050781 303.808594 900.726562 300.980469 906.058594 303.921875 L 907.785156 304.878906 C 907.785156 304.878906 919.230469 314.617188 919.613281 333.339844 C 920.007812 352.054688 915.714844 368.050781 911.039062 383.25 C 906.347656 398.460938 899.726562 415.621094 910.257812 439.023438 C 920.777344 462.414062 945.351562 517.011719 926.628906 543.136719 C 907.917969 569.25 879.058594 577.046875 843.183594 577.058594 C 807.308594 577.046875 768.324219 579.394531 750.765625 550.152344 C 733.21875 520.898438 748.617188 483.277344 752.128906 474.109375 C 755.644531 464.941406 775.914062 431.214844 770.269531 416.007812 C 764.613281 400.808594 755.0625 379.945312 756.226562 367.65625 C 757.398438 355.378906 759.738281 347.386719 765.394531 343.476562 C 766.171875 342.945312 766.964844 342.488281 767.765625 342.105469 C 772.496094 339.785156 778.128906 342.71875 779.035156 347.90625 C 780.207031 354.734375 782.378906 364.101562 785.863281 368.625 C 790.199219 374.269531 805.511719 381.078125 816.863281 373.96875 C 819.773438 372.160156 821.46875 368.90625 821.511719 365.472656 L 825.242188 108.359375 C 825.285156 105.074219 824.992188 101.808594 824.328125 98.585938 C 823.621094 95.238281 822.613281 91.546875 821.21875 89.117188 C 818.753906 84.78125 812.683594 81.433594 810.28125 80.238281 C 809.660156 79.925781 809.285156 79.28125 809.335938 78.585938 C 809.523438 75.945312 810.0625 69.25 811.082031 64.15625 C 812.082031 59.125 815.585938 42.417969 817.113281 35.109375 C 817.558594 33.019531 816.6875 30.878906 814.917969 29.652344 L 812.683594 28.125 C 809.574219 26.015625 807.007812 23.199219 805.179688 19.914062 L 805.0625 19.714844 C 800.800781 12.125 804.167969 2.5 812.246094 -0.773438 L 812.558594 -0.898438 C 821.21875 -4.425781 831 0.117188 833.953125 8.914062 " fill-opacity="1" fill-rule="nonzero"/></g></g></g><g clip-path="url(#6439de2b04)"><path fill="#fd8db7" d="M -0.195312 -1.355469 L 827.753906 -1.355469 L 827.753906 576.175781 L -0.195312 576.175781 Z M -0.195312 -1.355469 " fill-opacity="1" fill-rule="nonzero"/></g></svg>